<?xml version="1.0" encoding="utf-8"?>
<!-- Generator: Adobe Illustrator 23.0.2, SVG Export Plug-In . SVG Version: 6.00 Build 0)  -->
<svg version="1.1"
     id="svg4485" xmlns:cc="http://creativecommons.org/ns#" xmlns:dc="http://purl.org/dc/elements/1.1/" xmlns:inkscape="http://www.inkscape.org/namespaces/inkscape" xmlns:rdf="http://www.w3.org/1999/02/22-rdf-syntax-ns#" xmlns:sodipodi="http://sodipodi.sourceforge.net/DTD/sodipodi-0.dtd" xmlns:svg="http://www.w3.org/2000/svg"
     xmlns="http://www.w3.org/2000/svg" xmlns:xlink="http://www.w3.org/1999/xlink" x="0px" y="0px" viewBox="0 0 1334.7 577.3"
     style="enable-background:new 0 0 1334.7 577.3;" xml:space="preserve">
    <style type="text/css">
        .st0{fill:#E6E6E6;}
        .st1{font-family: "游明朝", YuMincho, "ヒラギノ明朝 ProN W3", "Hiragino Mincho ProN", "HG明朝E", "ＭＳ Ｐ明朝", "ＭＳ 明朝", serif;}
        .st2{font-size:26.6667px;}
        .st3{font-size:40px;}
        .st4{fill:#CCCCCC;}
        .st5{font-family: serif; font-style:italic;}
        .st6{font-size:32px;}
        .st7{fill:#B3B3B3;stroke:#B3B3B3;}
        .st8{font-size:16px;}
    </style>
    <text transform="matrix(1 0 0 1 201.9532 123.4236)" class="st0 st1 st2">取締役</text>
    <text transform="matrix(1 0 0 1 201.7774 195.748)" class="st0 st1 st3">謝 昊辰</text>
    <text transform="matrix(1 0 0 1 201.6016 260.5374)" class="st4 st5 st3">career</text>
    <text transform="matrix(1 0 0 1 200.8985 337.4244)" class="st0 st1 st6">ソフトウェアコンサルタント</text>
    <text transform="matrix(1 0 0 1 201.9271 297.1423)" class="st0 st5 st2">2013</text>
    <text transform="matrix(1 0 0 1 255.2605 298.7439)" class="st0 st1 st2">～</text>
    <text transform="matrix(1 0 0 1 201.5704 407.8373)" class="st0 st1 st6">名古屋大学 </text>
    <text transform="matrix(1 0 0 1 201.0417 445.5332)" class="st0 st1 st2">情報文化学部　在学中</text>
    <text transform="matrix(1 0 0 1 377.2086 196.6584)" class="st4 st5 st6">Haochen Xie</text>
    <path id="path5134" inkscape:connector-curvature="0" inkscape:original-d="m 321.70886,253.03929 c 79.04376,-0.001 158.08654,-0.001 237.12834,0" inkscape:path-effect="#path-effect5136" class="st7" d="
        M321.7,253c79,0,158.1,0,237.1,0"/>
    <text transform="matrix(1 0 0 1 199.875 153.568)" class="st0 st1 st8">コトイ　</text>
    <text transform="matrix(1 0 0 1 267.8916 153.8492)" class="st0 st1 st8">コウシン　</text>
</svg>
